<svg width="32" height="32" viewBox="0 0 32 32" fill="none" xmlns="http://www.w3.org/2000/svg">
<rect width="32" height="32" fill="#4B4B4B"/>
<g clip-path="url(#clip0_5_2)">
<path d="M29.8523 13.4961C28.8841 6.99065 23.2752 2 16.5003 2C9.04432 2 3 8.04426 3 15.5003C3 22.2763 7.99217 27.8858 14.4991 28.8527C14.496 28.8516 14.4941 28.8509 14.4941 28.8509C14.4941 28.8509 29.8509 13.494 29.8523 13.4961Z" fill="#AACE86"/>
<path d="M29.8509 13.494L24.1787 7.82185L23.9712 8.02941C22.0592 6.11741 19.4179 4.93484 16.5003 4.93484C10.6652 4.93484 5.93484 9.66517 5.93484 15.5003C5.93484 18.4179 7.11741 21.0592 9.02941 22.9712L8.82191 23.1787L14.4941 28.8509C18.583 29.4621 22.8986 28.1943 26.0465 25.0465C29.1943 21.8986 30.4621 17.583 29.8509 13.494Z" fill="#86C746"/>
<path d="M16.559 25.1853C11.2101 25.1853 6.8153 20.8492 6.8153 15.5003C6.8153 10.1514 11.1514 5.8153 16.5003 5.8153L17.0873 5.22833L16.5003 4.64136C10.503 4.64136 5.64136 9.50305 5.64136 15.5003C5.64136 21.4975 10.5617 26.3592 16.559 26.3592L17.146 25.7723L16.559 25.1853Z" fill="#419EBE"/>
<path d="M16.5003 5.8153C21.8492 5.8153 26.1853 10.1514 26.1853 15.5003C26.1853 20.8492 21.8492 25.1853 16.5003 25.1853V26.3592C22.4975 26.3592 27.3592 21.4975 27.3592 15.5003C27.3592 9.50305 22.4975 4.64136 16.5003 4.64136V5.8153Z" fill="#2089B0"/>
<path d="M10.3371 15.5003C10.3371 12.0965 13.0965 9.33712 16.5003 9.33712L17.0873 8.75015L16.5003 8.16318C12.4481 8.16318 9.16318 11.4481 9.16318 15.5003C9.16318 19.5525 12.4481 22.8374 16.5003 22.8374L17.0873 22.2504L16.5003 21.6635C13.0965 21.6635 10.3371 18.9041 10.3371 15.5003Z" fill="#419EBE"/>
<path d="M16.5003 8.16318V9.33712C19.9041 9.33712 22.6635 12.0965 22.6635 15.5003C22.6635 18.9041 19.9041 21.6635 16.5003 21.6635V22.8374C20.5525 22.8374 23.8374 19.5525 23.8374 15.5003C23.8374 11.4481 20.5525 8.16318 16.5003 8.16318Z" fill="#2089B0"/>
<path d="M16.5003 19.3156C18.6074 19.3156 20.3156 17.6074 20.3156 15.5003C20.3156 13.3932 18.6074 11.685 16.5003 11.685C14.3932 11.685 12.685 13.3932 12.685 15.5003C12.685 17.6074 14.3932 19.3156 16.5003 19.3156Z" fill="#FFE1A5"/>
<path d="M13.8589 15.5003C13.8589 16.9591 15.0415 18.1417 16.5003 18.1417L17.0873 15.5003L16.5003 12.8589C15.0415 12.8589 13.8589 14.0415 13.8589 15.5003Z" fill="#FF7975"/>
<path d="M22.0028 22.7637C22.0028 23.7362 22.7912 24.5246 23.7637 24.5246L24.3507 22.7637L23.7637 21.0028C22.7911 21.0028 22.0028 21.7911 22.0028 22.7637Z" fill="#DA5B66"/>
<path d="M23.7637 21.0028V24.5246C24.7362 24.5246 25.5246 23.7362 25.5246 22.7637C25.5246 21.7911 24.7362 21.0028 23.7637 21.0028Z" fill="#D93722"/>
<path d="M7.18251 8.2369C7.18251 9.37151 8.10229 10.2913 9.2369 10.2913L9.82387 8.2369L9.2369 6.18251C8.10229 6.18251 7.18251 7.10229 7.18251 8.2369Z" fill="#E47682"/>
<path d="M9.2369 6.18251V10.2913C10.3715 10.2913 11.2913 9.37151 11.2913 8.2369C11.2913 7.10229 10.3715 6.18251 9.2369 6.18251Z" fill="#DA5B66"/>
<path d="M20.0994 10.7272C20.0994 11.3756 20.625 11.9012 21.2733 11.9012L21.8603 10.7272L21.2733 9.5533C20.625 9.5533 20.0994 10.0789 20.0994 10.7272Z" fill="#EA5A20"/>
<path d="M21.2733 9.5533V11.9012C21.9217 11.9012 22.4473 11.3756 22.4473 10.7272C22.4473 10.0789 21.9217 9.5533 21.2733 9.5533Z" fill="#D93722"/>
<path d="M16.5003 12.8589V18.1417C17.9591 18.1417 19.1417 16.9591 19.1417 15.5003C19.1417 14.0415 17.9591 12.8589 16.5003 12.8589Z" fill="#C13131"/>
</g>
<defs>
<clipPath id="clip0_5_2">
<rect width="27" height="27" fill="white" transform="translate(3 2)"/>
</clipPath>
</defs>
</svg>
